<svg xmlns="http://www.w3.org/2000/svg" width="122" height="39.003" viewBox="0 0 122 39.003"><defs><style>.a{fill:#db353a;}.b{fill:#fffefe;}.c{fill:#919191;}</style></defs><g transform="translate(-3766.622 -1744)"><path class="a" d="M305.621,116.932A19.5,19.5,0,1,1,286.161,97.42,19.472,19.472,0,0,1,305.621,116.932Zm-18.725-7.7a5.695,5.695,0,1,0,5.722-5.732A5.706,5.706,0,0,0,286.9,109.233Z" transform="translate(3499.992 1646.58)"/><path class="b" d="M509.216,175.951a5.695,5.695,0,1,1,5.694,5.695A5.753,5.753,0,0,1,509.216,175.951Z" transform="translate(3277.672 1580.026)"/><g transform="translate(3806.752 1762.044)"><path class="c" d="M859.32,678.656c-.064-.022-.084-.008-.1.026a3.009,3.009,0,0,1-2.118,1.427,5.265,5.265,0,0,1-4.328-.952,4.594,4.594,0,0,1-1.838-3.194,6.674,6.674,0,0,1,.595-3.868,5.7,5.7,0,0,1,4.142-3.22,6.682,6.682,0,0,1,2.339-.117A4.713,4.713,0,0,1,862,671.893a5.155,5.155,0,0,1,.384,1.936c-.014,1.956.069,3.909.1,5.864a6.05,6.05,0,0,1-.388,2.261,5.364,5.364,0,0,1-3.458,3.347,7.094,7.094,0,0,1-4.184.109,4.344,4.344,0,0,1-1.414-.661,2.349,2.349,0,0,1-1.086-2.117c.015-.323,0-.647,0-.97,0-.063.014-.13.079-.151a.167.167,0,0,1,.167.061,3.7,3.7,0,0,0,.992.668,6.1,6.1,0,0,0,1.582.487,7.643,7.643,0,0,0,1.689.094,4.038,4.038,0,0,0,1.349-.279,2.338,2.338,0,0,0,1.485-1.808,4.241,4.241,0,0,0,.065-1.337C859.344,679.149,859.336,678.895,859.32,678.656Zm-.059-4.177a3.838,3.838,0,0,0-.292-1.689,2.116,2.116,0,0,0-2.184-1.3,2.6,2.6,0,0,0-2.235,1.411,3.585,3.585,0,0,0-.236,3.07,2.38,2.38,0,0,0,2.888,1.539,2.44,2.44,0,0,0,1.832-1.652,3.759,3.759,0,0,0,.226-1.375Z" transform="translate(-780.619 -664.792)"/><path class="c" d="M20.762,632.74c-.115-.01-.167-.1-.231-.157a5.194,5.194,0,0,0-2.993-1.308,8.176,8.176,0,0,0-2.026,0,3.924,3.924,0,0,0-1.327.368,1.7,1.7,0,0,0-.994,1.681,1.231,1.231,0,0,0,.442.929,2.739,2.739,0,0,0,.707.431,10.4,10.4,0,0,0,1.8.574c.523.125,1.051.234,1.57.377a6,6,0,0,1,1.954.919,3.533,3.533,0,0,1,1.545,2.475,4.836,4.836,0,0,1-3.185,5.466,8.335,8.335,0,0,1-3.549.423,7.4,7.4,0,0,1-1.767-.317,4.454,4.454,0,0,1-1.121-.53,2.657,2.657,0,0,1-1.231-2.255c-.009-.431,0-.862,0-1.293,0-.1.079-.137.153-.083.1.073.191.155.288.231a6.58,6.58,0,0,0,4.981,1.372,4.179,4.179,0,0,0,1.164-.278,1.681,1.681,0,0,0,.935-.849,2.311,2.311,0,0,0,.106-1.536,1.137,1.137,0,0,0-.463-.617,3.12,3.12,0,0,0-.775-.405,15,15,0,0,0-2.172-.607,11.532,11.532,0,0,1-1.643-.456,5.552,5.552,0,0,1-1.64-.926,3.457,3.457,0,0,1-1.266-3.073,5.029,5.029,0,0,1,3.306-4.4,5.925,5.925,0,0,1,2.151-.477,9.623,9.623,0,0,1,2.662.195,4.8,4.8,0,0,1,1.369.537,2.694,2.694,0,0,1,1.048,1.078,1.857,1.857,0,0,1,.235.791c.014.538.018,1.077.023,1.616A.248.248,0,0,1,20.762,632.74Z" transform="translate(-10.008 -627.857)"/><path class="c" d="M272.9,676.621h-1.708c-.174,0-.22.06-.183.228a2.642,2.642,0,0,0,.563,1.149,3.377,3.377,0,0,0,1.921,1.111,6.176,6.176,0,0,0,1.885.063,6.274,6.274,0,0,0,1.4-.276,4.371,4.371,0,0,0,1.493-.806c.1-.083.19-.038.19.079a8.127,8.127,0,0,1-.047,1.337,2.275,2.275,0,0,1-.978,1.555,3.818,3.818,0,0,1-1.487.6,8.77,8.77,0,0,1-2.845.135,6.181,6.181,0,0,1-5.152-4.494,7.046,7.046,0,0,1-.214-2.423,8.6,8.6,0,0,1,.41-2.123,5.875,5.875,0,0,1,2.423-3.162,6.056,6.056,0,0,1,2.6-.875,5.41,5.41,0,0,1,2.84.405,4.616,4.616,0,0,1,2.8,3.383,4.26,4.26,0,0,1,.056,1.7,2.289,2.289,0,0,1-1.026,1.576,4.229,4.229,0,0,1-1.364.545,11.435,11.435,0,0,1-2.241.274c-.446.013-.892,0-1.337,0Zm-.374-2.22a14.934,14.934,0,0,0,1.971-.1,3.58,3.58,0,0,0,.933-.238.861.861,0,0,0,.552-.83,1.676,1.676,0,0,0-1-1.671,3.1,3.1,0,0,0-2.073-.167,2.525,2.525,0,0,0-1.713,1.549,3.654,3.654,0,0,0-.245,1.17c-.022.241,0,.276.235.279C271.614,674.4,272.044,674.4,272.526,674.4Z" transform="translate(-246.184 -664.771)"/><path class="c" d="M705.961,677.315V681.1c-.007.348-.013.356-.368.359a4.736,4.736,0,0,1-1.1-.073,2,2,0,0,1-1.593-1.438,2.552,2.552,0,0,1-.062-.734V674.55a5.921,5.921,0,0,0-.155-1.42,2.771,2.771,0,0,0-.289-.727,1.935,1.935,0,0,0-1.035-.878,2.777,2.777,0,0,0-1.681-.1,1.968,1.968,0,0,0-1.175.835,2.807,2.807,0,0,0-.447,1.2,7.452,7.452,0,0,0-.07,1.012q.006,3.235,0,6.468c0,.565.037.517-.53.517a4.464,4.464,0,0,1-.919-.06,1.948,1.948,0,0,1-1.652-1.793,4.9,4.9,0,0,1-.023-.507v-4.943a6.208,6.208,0,0,1,.272-1.959,4.894,4.894,0,0,1,3.276-3.31,6.331,6.331,0,0,1,3.774-.1,4.921,4.921,0,0,1,3.631,3.912,7.251,7.251,0,0,1,.149,1.564C705.965,675.281,705.961,676.3,705.961,677.315Z" transform="translate(-637.648 -664.65)"/><path class="c" d="M169.864,645.03v-3.835a4.821,4.821,0,0,1,.04-.737,3.465,3.465,0,0,1,1.587-2.334,1.954,1.954,0,0,1,1.337-.237.149.149,0,0,1,.139.156c.006.108.006.215.006.323v2.171a.157.157,0,0,0,.167.177c.124,0,.246.005.369.005h3.512c.3.007.307.012.312.317v.785a1.579,1.579,0,0,1-1.427,1.646,5.147,5.147,0,0,1-.691.043c-.57.006-1.139,0-1.709,0h-.323c-.15.008-.2.053-.207.189-.007.092-.005.185-.005.277v4.389a3.827,3.827,0,0,0,.111,1.053,1.557,1.557,0,0,0,1.484,1.243,4.845,4.845,0,0,0,2.532-.352c.171-.084.23-.044.232.135,0,.334.013.678,0,1.016a1.866,1.866,0,0,1-1.18,1.728,2.82,2.82,0,0,1-.888.239,6.534,6.534,0,0,1-2.561-.205,3.705,3.705,0,0,1-2.649-2.764,6.005,6.005,0,0,1-.194-1.554v-3.88Z" transform="translate(-156.505 -636.532)"/><path class="c" d="M526.109,628.762V622.3c0-.443-.014-.425.431-.424.231,0,.462,0,.693.005a2.316,2.316,0,0,1,.766.152,1.774,1.774,0,0,1,1.17,1.323,3.409,3.409,0,0,1,.078.824v10.065c0,.216,0,.432.014.646a1.262,1.262,0,0,0,1.012,1.22,3.127,3.127,0,0,0,.821.107c.308,0,.616,0,.924.005.1,0,.183.04.186.155a4.122,4.122,0,0,1-.083,1.238,1.42,1.42,0,0,1-.925,1.013,2.579,2.579,0,0,1-.668.151,5.328,5.328,0,0,1-2.053-.213A3.175,3.175,0,0,1,526.22,636a5.726,5.726,0,0,1-.1-1.194Q526.11,631.786,526.109,628.762Z" transform="translate(-482.995 -621.874)"/><path class="c" d="M426.768,679.377v3.6c0,.418-.005.418-.4.418a5.231,5.231,0,0,1-1.2-.084,1.809,1.809,0,0,1-1.465-1.253,2.436,2.436,0,0,1-.106-.728c0-1.941-.009-3.881.006-5.822a5.662,5.662,0,0,1,.5-2.378,4.031,4.031,0,0,1,3.174-2.392,4.93,4.93,0,0,1,1.838.008,2.506,2.506,0,0,1,.815.312,1.867,1.867,0,0,1,.936,1.6c.012.307.006.616,0,.924,0,.224-.06.259-.288.187-.1-.032-.2-.073-.306-.105a4.206,4.206,0,0,0-1.825-.16A1.7,1.7,0,0,0,427,674.642a2.738,2.738,0,0,0-.2.9c-.015.353-.028.708-.028,1.062C426.766,677.526,426.768,678.45,426.768,679.377Z" transform="translate(-389.046 -666.585)"/><path class="c" d="M613.567,679.946v-4.251c0-.41,0-.411.4-.418a5.435,5.435,0,0,1,1.1.066,1.842,1.842,0,0,1,1.536,1.469,3.818,3.818,0,0,1,.1.919q-.006,2.773,0,5.545c0,.2-.005.4.014.6a1.223,1.223,0,0,0,1.063,1.213,5.142,5.142,0,0,0,1.011.065c.412,0,.41,0,.408.406a4.668,4.668,0,0,1-.074,1.011,1.322,1.322,0,0,1-1.063,1.086,2.96,2.96,0,0,1-.593.077,5.055,5.055,0,0,1-1.463-.167,3.055,3.055,0,0,1-2.244-2.234,5.121,5.121,0,0,1-.2-1.46v-3.926Z" transform="translate(-563.146 -670.811)"/></g><path class="c" d="M610.257,619.427a1.821,1.821,0,0,1,1.816-1.817,1.835,1.835,0,1,1,.018,3.669,1.821,1.821,0,0,1-1.834-1.852Z" transform="translate(3246.639 1144.116)"/></g></svg>